<svg xmlns="http://www.w3.org/2000/svg" xmlns:xlink="http://www.w3.org/1999/xlink" width="100" height="100" viewBox="0 0 100 100">

    <defs>
    
    <linearGradient id="linear-gradient" x1="0.5" x2="0.5" y2="1" gradientUnits="objectBoundingBox">
    
    <stop offset="0" stop-color="#069bff"/>
    
    <stop offset="1" stop-color="#166dff"/>
    
    </linearGradient>
    
    </defs>
    
    <g id="Group_5" data-name="Group 5" transform="translate(-507 -27)">
    
    <path id="App_Icon_Mask_1_" d="M100,31.25V24.687a46.622,46.622,0,0,0-.625-6.562,14.977,14.977,0,0,0-2.187-6.25,19.6,19.6,0,0,0-9.062-9.063A36.763,36.763,0,0,0,81.875.625,46.622,46.622,0,0,0,75.313,0H24.687a46.622,46.622,0,0,0-6.562.625,14.977,14.977,0,0,0-6.25,2.187,18.279,18.279,0,0,0-9.063,9.062,36.763,36.763,0,0,0-2.187,6.25A46.622,46.622,0,0,0,0,24.688V75.313a46.622,46.622,0,0,0,.625,6.563,14.977,14.977,0,0,0,2.187,6.25,19.6,19.6,0,0,0,9.063,9.063,36.764,36.764,0,0,0,6.25,2.188,46.623,46.623,0,0,0,6.563.625H75.313a46.622,46.622,0,0,0,6.563-.625,14.977,14.977,0,0,0,6.25-2.187,19.6,19.6,0,0,0,9.063-9.062,36.764,36.764,0,0,0,2.188-6.25A46.622,46.622,0,0,0,100,75.312V31.25Z" transform="translate(507 27)" fill="url(#linear-gradient)"/>
    
    <path id="Path_33838" data-name="Path 33838" d="M66.6,15H34.1A10.991,10.991,0,0,0,23.2,25.9V73.4A10.991,10.991,0,0,0,34.1,84.3H56a9.069,9.069,0,0,0,6.6-2.8L75,68.8a9.1,9.1,0,0,0,2.5-6.3V25.9A11.057,11.057,0,0,0,66.6,15ZM29.1,73.8V25.9a5,5,0,0,1,4.9-5H66.6a4.929,4.929,0,0,1,5,4.9h0v.1h0V61.8H65.3A10.436,10.436,0,0,0,55,72.2v6.3H34.1A4.96,4.96,0,0,1,29.1,73.8Z" transform="translate(506.1 27.1)" fill="#fff"/>
    
    <path id="Rectangle_16126" data-name="Rectangle 16126" d="M35.5,61.6H50.8a2.006,2.006,0,0,1,2,2h0a2.006,2.006,0,0,1-2,2H35.5a2.006,2.006,0,0,1-2-2h0A2.006,2.006,0,0,1,35.5,61.6Z" transform="translate(506.1 27.1)" fill="#fff"/>
    
    <path id="Rectangle_16127" data-name="Rectangle 16127" d="M35.5,69.4H47.4a2.006,2.006,0,0,1,2,2h0a2.006,2.006,0,0,1-2,2H35.5a2.006,2.006,0,0,1-2-2h0A2.006,2.006,0,0,1,35.5,69.4Z" transform="translate(506.1 27.1)" fill="#fff"/>
    
    <rect id="Rectangle_16128" data-name="Rectangle 16128" width="100" height="100" transform="translate(507 27)" fill="none"/>
    
    <circle id="Ellipse_1" data-name="Ellipse 1" cx="6.5" cy="6.5" r="6.5" transform="translate(550.1 55.1)" fill="#fff"/>
    
    <path id="Path_1" data-name="Path 1" d="M50.5,43a14.508,14.508,0,0,0-13.7,9.9,2.349,2.349,0,0,0,1.5,3,1.483,1.483,0,0,0,.7.1H62a2.348,2.348,0,0,0,2.4-2.3,2.2,2.2,0,0,0-.1-.8A14.869,14.869,0,0,0,50.5,43Z" transform="translate(506.1 27.1)" fill="#fff"/>
    
    <rect id="Rectangle_1" data-name="Rectangle 1" width="100" height="100" transform="translate(507 27)" fill="none"/>
    
    </g>
    
    </svg>