<svg xmlns="http://www.w3.org/2000/svg" xmlns:xlink="http://www.w3.org/1999/xlink" id="Layer_1" data-name="Layer 1" width="100" height="100" viewBox="0 0 100 100">
    <defs>
        <linearGradient id="linear-gradient" x1="-75.73" y1="178.23" x2="-75.73" y2="177.23" gradientTransform="matrix(100, 0, 0, -100, 7622.93, 17823.15)" gradientUnits="userSpaceOnUse">
            <stop offset="0" stop-color="#fe8c00" />
            <stop offset="1" stop-color="#f83600" />
        </linearGradient>
    </defs>
    <title>ic_timesheet_48px</title>
    <path d="M100,31.28c0-1.2,0-2.38,0-3.58,0-1,0-2,0-3a43.94,43.94,0,0,0-.58-6.57,22,22,0,0,0-2.06-6.25,21,21,0,0,0-9.18-9.18A22.2,22.2,0,0,0,81.89.63,43.82,43.82,0,0,0,75.32.05c-1,0-2,0-3,0H27.7l-3,0a43.82,43.82,0,0,0-6.57.58,22.22,22.22,0,0,0-6.24,2.06,21,21,0,0,0-9.18,9.18A21.86,21.86,0,0,0,.63,18.12a43.82,43.82,0,0,0-.58,6.57c0,1,0,2,0,3,0,1.19,0,2.39,0,3.58V68.72c0,1.2,0,2.38,0,3.58,0,1,0,2,0,3a43.94,43.94,0,0,0,.58,6.57,22.28,22.28,0,0,0,2.06,6.25,21,21,0,0,0,9.18,9.17,21.9,21.9,0,0,0,6.24,2.06,43.82,43.82,0,0,0,6.57.58c1,0,2,0,3,0H72.3c1,0,2,0,3,0a43.82,43.82,0,0,0,6.57-.58,21.9,21.9,0,0,0,6.24-2.06,21,21,0,0,0,9.18-9.17,22,22,0,0,0,2.06-6.25,43.94,43.94,0,0,0,.58-6.57c0-1,0-2,0-3,0-1.2,0-2.38,0-3.58Z" style="fill:url(#linear-gradient)" />
    <path d="M65.89,61.12V50a1.08,1.08,0,0,0-.42-.86,1.6,1.6,0,0,0-2.72,1.15V61.12a3.91,3.91,0,0,0-2,2H53.81a1.09,1.09,0,0,0-.87.42A1.62,1.62,0,0,0,53,65.86a1.66,1.66,0,0,0,1.08.44h6.63a4,4,0,0,0,5.26,2l.3-.15a3.28,3.28,0,0,0,1.49-1.5,4,4,0,0,0-1.57-5.41Z" style="fill:none" />
    <path d="M80.53,57.4A16.56,16.56,0,0,0,71.12,48C55.93,42.1,41.7,56.33,47.59,71.52A16.51,16.51,0,0,0,57,80.93C72.19,86.82,86.42,72.59,80.53,57.4ZM67.78,66.68a3.35,3.35,0,0,1-1.5,1.5,4,4,0,0,1-5.41-1.58l-.15-.31H53.81a1.07,1.07,0,0,1-.87-.42A1.61,1.61,0,0,1,53,63.59a1.58,1.58,0,0,1,1.08-.44h6.63a3.94,3.94,0,0,1,2-2V50a1.06,1.06,0,0,1,.42-.86,1.6,1.6,0,0,1,2.28.07,1.59,1.59,0,0,1,.44,1.07V61.12a4,4,0,0,1,2,5.25Z" style="fill:#fff" />
    <path d="M58.26,41a.68.68,0,0,0,0,.12Z" style="fill:none" />
    <path d="M40.89,69.93a2.6,2.6,0,0,0,.63.3l-.63-.3Z" style="fill:none" />
    <path d="M42.14,67c0,.23.09.45.14.68A5.12,5.12,0,0,0,42.14,67Z" style="fill:none" />
    <path d="M40.72,64.71l.05.05Z" style="fill:none" />
    <path d="M43.18,75.48a19.17,19.17,0,0,1-15.9-19V43.68a19.1,19.1,0,0,1,2.88-10.14,1.65,1.65,0,0,0,.22-1.35,2.19,2.19,0,0,0-2.61-1.66,2.16,2.16,0,0,0-1.36.94A23.37,23.37,0,0,0,23,43.68V56.52A23.44,23.44,0,0,0,42.52,79.71a1.57,1.57,0,0,0,1.81-1.28s0-.07,0-.1l.12-1.17A1.56,1.56,0,0,0,43.18,75.48Z" style="fill:#fff" />
    <path d="M38,23.83a19.06,19.06,0,0,1,9.58-2.55,19.27,19.27,0,0,1,19.2,17.83,1.54,1.54,0,0,0,1.54,1.42H69.5A1.56,1.56,0,0,0,71.06,39a.45.45,0,0,0,0-.11,23.54,23.54,0,0,0-35.41-18.6,1.74,1.74,0,0,0-.83,1.49V22a2.14,2.14,0,0,0,2.13,2.14A2.18,2.18,0,0,0,38,23.83Z" style="fill:#fff" />
    <path d="M62.49,40.82h0A15.18,15.18,0,0,0,49.25,26.7,15,15,0,0,0,32.7,39.91a.77.77,0,0,0,0,.15A1.4,1.4,0,0,0,34,41.58h1.62A1.39,1.39,0,0,0,37,40.36a10.7,10.7,0,0,1,21.3.62h0v.12a1.35,1.35,0,0,0,1.39,1.31l.23,0h0c.38,0,.75-.08,1.13-.11l.35,0c.92-.16,1.11-.72,1.14-1.09A1.22,1.22,0,0,0,62.49,40.82Z" style="fill:#fff" />
    <path d="M53.86,42.09h0a6.47,6.47,0,0,0-6.1-5.16A6.34,6.34,0,0,0,41.17,43V49.4a2.12,2.12,0,0,0,2.14,2.09h0a2.13,2.13,0,0,0,2.14-2.09V43.3a2.19,2.19,0,0,1,1.94-2.21A2.12,2.12,0,0,1,49.72,43c0,.06,0,.12,0,.18v.19s-.45,3.19,2.84,1.47h0l.16-.07A2.24,2.24,0,0,0,53.86,42.09Z" style="fill:#fff" />
    <path d="M41.52,70.22c.95.27,1-.83.76-2.53h0c-.05-.22-.1-.45-.14-.67a4.65,4.65,0,0,0-1.37-2.26l-.05,0,0,0h0a10.7,10.7,0,0,1-3.81-8.18v-7A1.55,1.55,0,0,0,35.33,48H34.17a1.56,1.56,0,0,0-1.56,1.56h0v7a15,15,0,0,0,8,13.24,2.59,2.59,0,0,1,.33.17Z" style="fill:#fff" />
    <path d="M40.72,64.71l0,0h0Z" style="fill:#fff" />
    <path d="M40.56,69.76l.33.16A2.49,2.49,0,0,0,40.56,69.76Z" style="fill:#fff" />
</svg>