<svg xmlns="http://www.w3.org/2000/svg" xmlns:xlink="http://www.w3.org/1999/xlink" id="Layer_1" data-name="Layer 1" viewBox="0 0 100 100">
    <defs>
        <linearGradient id="linear-gradient" x1="-76.09" y1="177.38" x2="-75.35" y2="176.47" gradientTransform="matrix(100, 0, 0, -100, 7622.93, 17744.45)" gradientUnits="userSpaceOnUse">
            <stop offset="0" stop-color="#3f4cfe" />
            <stop offset="0.7" stop-color="#7f73f0" />
            <stop offset="1" stop-color="#8478f2" />
        </linearGradient>
    </defs>
    <title>newsfeed</title>
    <path d="M100,31.28c0-1.2,0-2.39,0-3.58,0-1,0-2,0-3a43.82,43.82,0,0,0-.58-6.57,22,22,0,0,0-2.06-6.25,20.94,20.94,0,0,0-9.18-9.18A22.2,22.2,0,0,0,81.89.63,43.82,43.82,0,0,0,75.32.05c-1,0-2,0-3,0H27.7c-1,0-2,0-3,0a43.82,43.82,0,0,0-6.57.58,21.9,21.9,0,0,0-6.24,2.06,20.94,20.94,0,0,0-9.18,9.18A21.86,21.86,0,0,0,.63,18.12a43.71,43.71,0,0,0-.58,6.57c0,1,0,2,0,3,0,1.19,0,2.39,0,3.58V68.72c0,1.2,0,2.38,0,3.58,0,1,0,2,0,3a43.69,43.69,0,0,0,.58,6.56,21.86,21.86,0,0,0,2.06,6.25,20.94,20.94,0,0,0,9.18,9.18,22.22,22.22,0,0,0,6.24,2.06,43.82,43.82,0,0,0,6.57.58c1,0,2,0,3,0H72.3c1,0,2,0,3,0a43.82,43.82,0,0,0,6.57-.58,21.9,21.9,0,0,0,6.24-2.06,20.94,20.94,0,0,0,9.18-9.18,21.76,21.76,0,0,0,2.06-6.25,43.69,43.69,0,0,0,.58-6.56c0-1,0-2,0-3,0-1.2,0-2.39,0-3.58Z" style="fill:url(#linear-gradient)" />
    <rect x="2" y="12" width="89" height="89" style="fill:none" />
    <circle cx="53.72" cy="80.81" r="11.26" style="fill:#fff" />
    <circle cx="25.6" cy="63.92" r="7.88" style="fill:#fff" />
    <circle cx="55.97" cy="39.16" r="19.14" style="fill:#fff" />
</svg>