<svg xmlns="http://www.w3.org/2000/svg" xmlns:xlink="http://www.w3.org/1999/xlink" id="Layer_1" data-name="Layer 1" width="100" height="100" viewBox="0 0 100 100">
    <defs>
        <linearGradient id="linear-gradient" x1="-75.73" y1="178.23" x2="-75.73" y2="177.23" gradientTransform="matrix(100, 0, 0, -100, 7623, 17823.18)" gradientUnits="userSpaceOnUse">
            <stop offset="0" stop-color="#55f26f" />
            <stop offset="1" stop-color="#0fbe2c" />
        </linearGradient>
    </defs>
    <title>ic_task_48px</title>
    <path d="M100,31.28c0-1.2,0-2.39,0-3.58,0-1,0-2,0-3a43.94,43.94,0,0,0-.58-6.57,21.9,21.9,0,0,0-2.06-6.24,21,21,0,0,0-9.18-9.18A21.9,21.9,0,0,0,81.89.63,43.82,43.82,0,0,0,75.32.05c-1,0-2,0-3,0H27.7c-1,0-2,0-3,0a43.82,43.82,0,0,0-6.57.58,21.9,21.9,0,0,0-6.24,2.06,21,21,0,0,0-9.18,9.18A21.9,21.9,0,0,0,.63,18.11a43.82,43.82,0,0,0-.58,6.57c0,1,0,2,0,3,0,1.19,0,2.39,0,3.58V68.72c0,1.19,0,2.39,0,3.58,0,1,0,2,0,3a43.94,43.94,0,0,0,.58,6.57,21.8,21.8,0,0,0,2.06,6.24,20.94,20.94,0,0,0,9.18,9.18,21.9,21.9,0,0,0,6.24,2.06,43.82,43.82,0,0,0,6.57.58c1,0,2,0,3,0H72.3c1,0,2,0,3,0a43.82,43.82,0,0,0,6.57-.58,21.9,21.9,0,0,0,6.24-2.06,20.94,20.94,0,0,0,9.18-9.18,21.8,21.8,0,0,0,2.06-6.24,43.82,43.82,0,0,0,.58-6.57c0-1,0-2,0-3,0-1.19,0-2.39,0-3.58Z" style="fill:url(#linear-gradient)" />
    <path d="M79.52,37.76a2.52,2.52,0,0,0-3.27-1.38h0L76,36.5a2,2,0,0,0-.6.48c-6.7,7.62-17,19.41-22.53,25.66l-.05.06a3.74,3.74,0,0,1-5.27.23L34.06,50.86A4.16,4.16,0,0,1,33.8,45h0v0a4.16,4.16,0,0,1,5.88-.23h0l7.2,6.37.08.07a3.73,3.73,0,0,0,5.26-.35h0L71,29.4a3,3,0,0,0,.58-1.17A2.61,2.61,0,0,0,71.09,26h0a3.88,3.88,0,0,0-.52-.55,32.68,32.68,0,1,0,9,12.27Z" style="fill:#fff" />
    <rect x="12" y="13" width="75" height="75" style="fill:none" />
</svg>